<?xml version="1.0" encoding="UTF-8" standalone="no"?>
<!-- Created with Inkscape (http://www.inkscape.org/) -->

<svg
   version="1.1"
   id="svg1"
   width="379.13782"
   height="487.9675"
   viewBox="0 0 379.13782 487.9675"
   xmlns="http://www.w3.org/2000/svg"
   xmlns:svg="http://www.w3.org/2000/svg">
  <defs
     id="defs1" />
  <g
     id="g1"
     style="display:inline"
     transform="translate(-323.87854,-274.49854)">
    <g
       id="g2"
       transform="translate(1.5228391e-8,1.2994938)"
       style="display:inline">
      <path
         id="path3"
         style="fill:#67b934"
         d="m 679.38745,273.20674 c -6.77232,-0.16096 -16.96532,2.21343 -32.88671,6.17382 -35.69534,8.87911 -69.72265,19.9502 -101.35938,32.76368 h -0.002 L 483.9148,508.20088 c -3.2833,11.44459 -6.79316,22.29145 -10.53125,32.53906 -3.73809,10.24762 -7.55244,19.98621 -11.44141,29.21875 -3.35652,9.08879 -7.01608,17.99571 -10.98047,26.7207 7.00376,-6.90606 14.27435,-13.88377 21.81055,-20.93359 7.84013,-6.86794 16.06103,-13.97125 24.66211,-21.3086 L 525.63355,531.779 703.01636,393.20283 c -0.0851,-30.00253 -2.53751,-61.34449 -7.61328,-93.66211 -2.94564,-18.75502 -4.72842,-26.06572 -16.01563,-26.33398 z m -192.96093,66.14062 c -69.68873,36.80658 -121.90321,82.45875 -145.74219,130.17774 -32.624,65.30414 -16.45597,149.94672 37.2793,195.16601 8.22232,6.91925 7.93664,5.73359 3.12304,12.94531 -11.88688,17.80889 -33.06999,57.09165 -34.54687,64.06641 -1.375,6.49361 4.43144,13.31508 14.96094,17.57617 10.66924,4.31764 18.88855,1.13004 22.07421,-8.55859 5.41772,-16.47702 25.64903,-62.72071 27.43946,-62.72071 0.38873,0 4.51237,1.75912 9.16406,3.90821 140.00184,64.68104 258.58463,-50.57992 279.55078,-237.14844 L 437.20191,657.80439 396.17066,633.2497 Z" />
    </g>
  </g>
</svg>
